<?xml version="1.0" encoding="UTF-8" standalone="no"?>
<!-- Created with Inkscape (http://www.inkscape.org/) -->

<svg
   xmlns:dc="http://purl.org/dc/elements/1.1/"
   xmlns:cc="http://creativecommons.org/ns#"
   xmlns:rdf="http://www.w3.org/1999/02/22-rdf-syntax-ns#"
   xmlns:svg="http://www.w3.org/2000/svg"
   xmlns="http://www.w3.org/2000/svg"
   xmlns:sodipodi="http://sodipodi.sourceforge.net/DTD/sodipodi-0.dtd"
   xmlns:inkscape="http://www.inkscape.org/namespaces/inkscape"
   width="297mm"
   height="210mm"
   id="svg2987"
   version="1.1"
   inkscape:version="0.91 r13725"
   sodipodi:docname="scrum_iterations_artifacts.svg">
  <defs
     id="defs2989" />
  <sodipodi:namedview
     inkscape:document-units="mm"
     pagecolor="#ffffff"
     bordercolor="#666666"
     borderopacity="1.0"
     inkscape:pageopacity="0.0"
     inkscape:pageshadow="2"
     inkscape:zoom="0.61399264"
     inkscape:cx="295.52517"
     inkscape:cy="465.21705"
     inkscape:current-layer="layer1"
     id="namedview2991"
     showgrid="false"
     inkscape:window-width="1364"
     inkscape:window-height="701"
     inkscape:window-x="0"
     inkscape:window-y="27"
     inkscape:window-maximized="0" />
  <metadata
     id="metadata2993">
    <rdf:RDF>
      <cc:Work
         rdf:about="">
        <dc:format>image/svg+xml</dc:format>
        <dc:type
           rdf:resource="http://purl.org/dc/dcmitype/StillImage" />
        <dc:title />
      </cc:Work>
    </rdf:RDF>
  </metadata>
  <g
     inkscape:label="Layer 1"
     inkscape:groupmode="layer"
     id="layer1">
    <text
       xml:space="preserve"
       style="font-style:normal;font-weight:normal;font-size:38.66156006px;line-height:125%;font-family:Sans;text-align:center;letter-spacing:0px;word-spacing:0px;text-anchor:middle;fill:#000000;fill-opacity:1;stroke:none"
       x="528.3595"
       y="219.25201"
       id="text3037"
       sodipodi:linespacing="125%"><tspan
         sodipodi:role="line"
         id="tspan3039"
         x="528.3595"
         y="219.25201">&lt;-  itération  -&gt;</tspan><tspan
         sodipodi:role="line"
         x="528.3595"
         y="256.95206"
         id="tspan3041"
         style="font-size:28px">(..., 1s, 2s, 3s, ...)</tspan></text>
    <rect
       style="fill:#8dd35f;stroke:#a50000;stroke-width:2.2940383;stroke-miterlimit:4;stroke-dasharray:none;stroke-opacity:1"
       id="rect2985"
       width="335.35782"
       height="49.389427"
       x="23.315411"
       y="359.16025" />
    <rect
       y="358.47729"
       x="22.632458"
       height="50.755333"
       width="53.416962"
       id="rect3043"
       style="fill:#0066ff;stroke:#a50000;stroke-width:0.9281323;stroke-miterlimit:4;stroke-dasharray:none;stroke-opacity:1" />
    <rect
       style="fill:#ff6600;stroke:#a50000;stroke-width:0.9281323;stroke-miterlimit:4;stroke-dasharray:none;stroke-opacity:1"
       id="rect3045"
       width="53.416962"
       height="50.755333"
       x="304.63245"
       y="358.47729" />
    <rect
       y="358.47729"
       x="250.63245"
       height="50.755333"
       width="53.416962"
       id="rect3047"
       style="fill:#999999;stroke:#a50000;stroke-width:0.9281323;stroke-miterlimit:4;stroke-dasharray:none;stroke-opacity:1;fill-opacity:1" />
    <rect
       style="fill:#000055;stroke:#a50000;stroke-width:0.42906916;stroke-miterlimit:4;stroke-dasharray:none;stroke-opacity:1"
       id="rect3049"
       width="11.304845"
       height="51.254395"
       x="90.382919"
       y="358.22778" />
    <rect
       y="358.22778"
       x="135.04959"
       height="51.254395"
       width="11.304845"
       id="rect3051"
       style="fill:#000055;stroke:#a50000;stroke-width:0.42906916;stroke-miterlimit:4;stroke-dasharray:none;stroke-opacity:1" />
    <rect
       style="fill:#000055;stroke:#a50000;stroke-width:0.42906916;stroke-miterlimit:4;stroke-dasharray:none;stroke-opacity:1"
       id="rect3053"
       width="11.304845"
       height="51.254395"
       x="179.71626"
       y="358.22778" />
    <rect
       y="358.22778"
       x="224.38292"
       height="51.254395"
       width="11.304845"
       id="rect3055"
       style="fill:#000055;stroke:#a50000;stroke-width:0.42906916;stroke-miterlimit:4;stroke-dasharray:none;stroke-opacity:1" />
    <text
       xml:space="preserve"
       style="font-style:normal;font-weight:normal;font-size:38.66156006px;line-height:125%;font-family:Sans;text-align:center;letter-spacing:0px;word-spacing:0px;text-anchor:middle;fill:#000000;fill-opacity:1;stroke:none"
       x="188.3595"
       y="219.25201"
       id="text3411"
       sodipodi:linespacing="125%"><tspan
         sodipodi:role="line"
         id="tspan3413"
         x="188.3595"
         y="219.25201">&lt;-  itération  -&gt;</tspan><tspan
         sodipodi:role="line"
         x="188.3595"
         y="267.57898"
         id="tspan3415"
         style="font-size:28px" /></text>
    <text
       xml:space="preserve"
       style="font-style:normal;font-weight:normal;font-size:37.03963852px;line-height:125%;font-family:Sans;text-align:center;letter-spacing:0px;word-spacing:0px;text-anchor:middle;fill:#000055;fill-opacity:1;stroke:none"
       x="-179.06451"
       y="304.0878"
       id="text3057"
       sodipodi:linespacing="125%"
       transform="matrix(0.5,-0.8660254,0.8660254,0.5,0,0)"><tspan
         sodipodi:role="line"
         id="tspan3059"
         x="-179.06451"
         y="304.0878">mélée</tspan></text>
    <path
       style="fill:none;stroke:#000000;stroke-width:5.78621817;stroke-linecap:butt;stroke-linejoin:miter;stroke-miterlimit:4;stroke-opacity:1;stroke-dasharray:5.78621816, 5.78621816;stroke-dashoffset:0"
       d="m 354.78914,152.09559 2.15664,191.08398"
       id="path3875"
       inkscape:connector-curvature="0" />
    <path
       inkscape:connector-curvature="0"
       id="path3877"
       d="m 696.04651,155.35296 2.15664,191.08398"
       style="fill:none;stroke:#000000;stroke-width:5.78621817;stroke-linecap:butt;stroke-linejoin:miter;stroke-miterlimit:4;stroke-opacity:1;stroke-dasharray:5.78621816, 5.78621816;stroke-dashoffset:0" />
    <path
       style="fill:none;stroke:#000000;stroke-width:5.78621817;stroke-linecap:butt;stroke-linejoin:miter;stroke-miterlimit:4;stroke-opacity:1;stroke-dasharray:5.78621816, 5.78621816;stroke-dashoffset:0"
       d="m 1034.0465,155.35296 2.1567,191.08398"
       id="path3879"
       inkscape:connector-curvature="0" />
    <text
       transform="matrix(0.70710678,-0.70710678,0.70710678,0.70710678,0,0)"
       sodipodi:linespacing="125%"
       id="text3881"
       y="274.38312"
       x="-152.5575"
       style="font-style:normal;font-weight:normal;font-size:37.03963852px;line-height:125%;font-family:Sans;text-align:center;letter-spacing:0px;word-spacing:0px;text-anchor:middle;fill:#0066ff;fill-opacity:1;stroke:none"
       xml:space="preserve"><tspan
         y="274.38312"
         x="-152.5575"
         id="tspan3883"
         sodipodi:role="line">planning</tspan></text>
    <text
       xml:space="preserve"
       style="font-style:normal;font-weight:normal;font-size:37.03963852px;line-height:125%;font-family:Sans;text-align:center;letter-spacing:0px;word-spacing:0px;text-anchor:middle;fill:#999999;fill-opacity:1;stroke:none;"
       x="564.07263"
       y="354.40869"
       id="text3893"
       sodipodi:linespacing="125%"
       transform="matrix(0.96592583,0.25881905,-0.25881905,0.96592583,0,0)"><tspan
         sodipodi:role="line"
         x="564.07263"
         y="354.40869"
         id="tspan3899">point de visibilité des</tspan><tspan
         sodipodi:role="line"
         x="564.07263"
         y="400.70825"
         id="tspan3903">développements</tspan></text>
    <path
       inkscape:connector-curvature="0"
       id="path3911"
       d="m 354.78914,152.09559 2.15664,191.08398"
       style="fill:none;stroke:#000000;stroke-width:5.78621817;stroke-linecap:butt;stroke-linejoin:miter;stroke-miterlimit:4;stroke-opacity:1;stroke-dasharray:5.78621816, 5.78621816;stroke-dashoffset:0" />
    <rect
       y="359.16025"
       x="361.3154"
       height="49.389427"
       width="335.35782"
       id="rect3155"
       style="fill:#8dd35f;stroke:#a50000;stroke-width:2.2940383;stroke-miterlimit:4;stroke-dasharray:none;stroke-opacity:1" />
    <rect
       style="fill:#0066ff;stroke:#a50000;stroke-width:0.9281323;stroke-miterlimit:4;stroke-dasharray:none;stroke-opacity:1"
       id="rect3157"
       width="53.416962"
       height="50.755333"
       x="360.63245"
       y="358.47729" />
    <rect
       y="358.47729"
       x="642.63245"
       height="50.755333"
       width="53.416962"
       id="rect3159"
       style="fill:#ff6600;stroke:#a50000;stroke-width:0.9281323;stroke-miterlimit:4;stroke-dasharray:none;stroke-opacity:1;fill-opacity:1" />
    <rect
       style="fill:#999999;stroke:#a50000;stroke-width:0.9281323;stroke-miterlimit:4;stroke-dasharray:none;stroke-opacity:1"
       id="rect3161"
       width="53.416962"
       height="50.755333"
       x="588.63245"
       y="358.47729" />
    <rect
       y="358.22778"
       x="428.38293"
       height="51.254395"
       width="11.304845"
       id="rect3163"
       style="fill:#000055;stroke:#a50000;stroke-width:0.42906916;stroke-miterlimit:4;stroke-dasharray:none;stroke-opacity:1" />
    <rect
       style="fill:#000055;stroke:#a50000;stroke-width:0.42906916;stroke-miterlimit:4;stroke-dasharray:none;stroke-opacity:1"
       id="rect3165"
       width="11.304845"
       height="51.254395"
       x="473.04959"
       y="358.22778" />
    <rect
       y="358.22778"
       x="517.71625"
       height="51.254395"
       width="11.304845"
       id="rect3167"
       style="fill:#000055;stroke:#a50000;stroke-width:0.42906916;stroke-miterlimit:4;stroke-dasharray:none;stroke-opacity:1" />
    <rect
       style="fill:#000055;stroke:#a50000;stroke-width:0.42906916;stroke-miterlimit:4;stroke-dasharray:none;stroke-opacity:1"
       id="rect3169"
       width="11.304845"
       height="51.254395"
       x="562.38293"
       y="358.22778" />
    <rect
       style="fill:#8dd35f;stroke:#a50000;stroke-width:2.2940383;stroke-miterlimit:4;stroke-dasharray:none;stroke-opacity:1"
       id="rect3173"
       width="335.35782"
       height="49.389427"
       x="699.31543"
       y="359.16025" />
    <rect
       y="358.47729"
       x="698.63245"
       height="50.755333"
       width="53.416962"
       id="rect3175"
       style="fill:#0066ff;stroke:#a50000;stroke-width:0.9281323;stroke-miterlimit:4;stroke-dasharray:none;stroke-opacity:1" />
    <rect
       style="fill:#ff6600;stroke:#a50000;stroke-width:0.9281323;stroke-miterlimit:4;stroke-dasharray:none;stroke-opacity:1;fill-opacity:1"
       id="rect3177"
       width="53.416962"
       height="50.755333"
       x="980.63245"
       y="358.47729" />
    <rect
       y="358.47729"
       x="926.63245"
       height="50.755333"
       width="53.416962"
       id="rect3179"
       style="fill:#999999;stroke:#a50000;stroke-width:0.9281323;stroke-miterlimit:4;stroke-dasharray:none;stroke-opacity:1;fill-opacity:1" />
    <rect
       style="fill:#000055;stroke:#a50000;stroke-width:0.42906916;stroke-miterlimit:4;stroke-dasharray:none;stroke-opacity:1"
       id="rect3181"
       width="11.304845"
       height="51.254395"
       x="766.38293"
       y="358.22778" />
    <rect
       y="358.22778"
       x="811.04956"
       height="51.254395"
       width="11.304845"
       id="rect3183"
       style="fill:#000055;stroke:#a50000;stroke-width:0.42906916;stroke-miterlimit:4;stroke-dasharray:none;stroke-opacity:1" />
    <rect
       style="fill:#000055;stroke:#a50000;stroke-width:0.42906916;stroke-miterlimit:4;stroke-dasharray:none;stroke-opacity:1"
       id="rect3185"
       width="11.304845"
       height="51.254395"
       x="855.71625"
       y="358.22778" />
    <rect
       y="358.22778"
       x="900.38293"
       height="51.254395"
       width="11.304845"
       id="rect3187"
       style="fill:#000055;stroke:#a50000;stroke-width:0.42906916;stroke-miterlimit:4;stroke-dasharray:none;stroke-opacity:1" />
    <path
       style="fill:none;stroke:#000000;stroke-width:4.03139257;stroke-linecap:butt;stroke-linejoin:miter;stroke-miterlimit:4;stroke-opacity:1;stroke-dasharray:4.03139272, 4.03139272;stroke-dashoffset:0"
       d="m 12.4558,375.97654 -51.1433,3.91152"
       id="path3202"
       inkscape:connector-curvature="0" />
    <path
       inkscape:connector-curvature="0"
       id="path3206"
       d="m 1092.4558,375.97654 -51.1433,3.91152"
       style="fill:none;stroke:#000000;stroke-width:4.03139257;stroke-linecap:butt;stroke-linejoin:miter;stroke-miterlimit:4;stroke-opacity:1;stroke-dasharray:4.03139272, 4.03139272;stroke-dashoffset:0" />
    <path
       style="fill:#ff6600;fill-opacity:1;stroke:#a50000;stroke-width:0;stroke-miterlimit:4;stroke-opacity:1;stroke-dasharray:none;stroke-dashoffset:0"
       d="m 281.29351,316.35263 24.68172,14.25 24.68173,14.25 76.14062,-131.87943 76.14063,-131.879428 -24.68172,-14.25 -24.68173,-14.25 -76.14062,131.879428 -76.14063,131.87943 z m 29.16909,-38.58484 2.5625,-4.43838 2.55605,9.19779 -1.76563,3.05815 -3.35292,-7.81756 z m 95.04904,-161.62976 3.23437,-5.60211 4.5737,2.64063 -3.23438,5.6021 -4.57369,-2.64062 z m -85.31595,152.02155 3.23438,-5.60211 4.97964,2.875 3.34375,-5.79154 4.00537,2.3125 -3.34375,5.79154 7.44241,4.29688 c 0.81446,0.47024 1.45286,0.62089 1.93211,0.46599 0.46881,-0.16092 0.98776,-0.71084 1.54239,-1.6715 l 1.67187,-2.89577 4.00537,2.3125 -2.78125,4.81727 c -1.27807,2.21367 -2.64356,3.51333 -4.09898,3.91213 -1.45983,0.38235 -3.29221,-0.0605 -5.50589,-1.33852 l -7.4424,-4.29687 -1.60938,2.78752 -4.00537,-2.3125 1.60938,-2.78752 -4.97965,-2.875 z m 78.59375,-136.12837 3.23438,-5.6021 4.97964,2.875 3.34375,-5.79155 4.00537,2.3125 -3.34375,5.79155 7.44241,4.29687 c 0.81446,0.47025 1.45286,0.6209 1.93211,0.46599 0.46881,-0.16091 1.00338,-0.7379 1.55801,-1.69856 l 1.65625,-2.86871 4.00537,2.3125 -2.78125,4.81727 c -1.27807,2.21367 -2.64356,3.51334 -4.09898,3.91214 -1.45983,0.38235 -3.29221,-0.0605 -5.50589,-1.33852 l -7.4424,-4.29688 -1.60938,2.78752 -4.00537,-2.3125 1.60938,-2.78752 -4.97965,-2.875 z M 309.3517,297.44192 c 0.10852,-0.18793 0.2232,-0.3726 0.37077,-0.57979 0.13707,-0.21321 0.37738,-0.52425 0.67075,-0.91178 l 5.06084,2.92188 c -0.51305,0.35815 -0.94312,0.74971 -1.33089,1.18016 -0.39217,0.41404 -0.72278,0.87693 -1.00613,1.36767 -0.83193,1.44099 -1.01881,2.806 -0.54165,4.12566 0.47278,1.30323 1.55648,2.45027 3.27937,3.44497 l 8.09192,4.67188 -3.23437,5.6021 -17.53702,-10.125 3.23438,-5.6021 2.86871,1.65625 c -0.73262,-1.38361 -1.08239,-2.66949 -1.06795,-3.90026 0.0101,-1.2472 0.38766,-2.54642 1.14123,-3.85166 z m 7.39063,-12.80094 c 1.59155,-2.75662 3.68956,-4.47465 6.30232,-5.16594 2.6188,-0.70168 5.31755,-0.24965 8.09507,1.35393 l 1.59673,0.92187 -7.5625,13.09864 c 1.39404,0.62387 2.67703,0.71907 3.80509,0.28439 1.12807,-0.43465 2.09903,-1.3856 2.94303,-2.84747 0.68123,-1.17992 1.21275,-2.49227 1.57955,-3.92336 0.36237,-1.44753 0.56285,-3.02261 0.60639,-4.7378 l 4.33012,2.5 c -0.26442,1.6155 -0.67226,3.14815 -1.18728,4.61893 -0.50459,1.47684 -1.1253,2.88658 -1.89092,4.21268 -1.8327,3.17432 -4.06301,5.18846 -6.68988,6.02472 -2.63129,0.8198 -5.39524,0.38524 -8.30852,-1.29674 -2.86104,-1.65182 -4.63679,-3.80786 -5.28144,-6.47726 -0.63862,-2.67981 -0.086,-5.53844 1.66224,-8.56659 z m 23.17187,-40.13486 c 0.10852,-0.18793 0.2232,-0.3726 0.37077,-0.57979 0.13707,-0.21321 0.37738,-0.52425 0.67075,-0.91178 l 5.06084,2.92187 c -0.51305,0.35816 -0.94312,0.74971 -1.33089,1.18017 -0.39217,0.41404 -0.72278,0.87693 -1.00613,1.36767 -0.83193,1.44099 -1.01881,2.80599 -0.54165,4.12566 0.47278,1.30323 1.55648,2.45027 3.27937,3.44497 l 8.09192,4.67187 -3.23437,5.60211 -17.53702,-10.125 3.23438,-5.60211 2.86871,1.65625 c -0.73262,-1.3836 -1.08239,-2.66948 -1.06795,-3.90025 0.0101,-1.2472 0.38766,-2.54642 1.14123,-3.85167 z m 7.35938,-12.74681 c 1.74227,-3.01767 3.93533,-4.89051 6.54088,-5.64165 2.61159,-0.76153 5.35263,-0.30157 8.23457,1.3623 2.88194,1.66391 4.65081,3.80775 5.29708,6.4502 0.65228,2.63205 0.0998,5.4521 -1.64243,8.46977 -1.7483,3.02814 -3.92746,4.93941 -6.54507,5.7114 -2.61158,0.76156 -5.35263,0.30159 -8.23458,-1.3623 -2.88193,-1.66389 -4.65079,-3.80771 -5.29707,-6.4502 -0.64022,-2.6529 -0.10166,-5.51138 1.64662,-8.53952 z m 11.79687,-20.43279 c 0.59684,-1.03372 1.32046,-2.08628 2.1342,-3.13403 0.81375,-1.04771 1.76554,-2.14213 2.87133,-3.2858 l 4.276,2.46875 c -1.19449,0.91146 -2.25661,1.86235 -3.15228,2.83492 -0.89565,0.97261 -1.63429,1.9557 -2.20701,2.94765 -0.61491,1.06508 -0.9391,1.93713 -0.96906,2.61595 -0.0343,0.66238 0.22695,1.1414 0.78035,1.46089 0.44901,0.25925 0.89332,0.27312 1.35653,0.0254 0.46926,-0.25811 1.07602,-0.87893 1.77564,-1.8255 l 0.69782,-0.89615 c 2.02333,-2.66048 3.74893,-4.23496 5.15699,-4.74467 1.40806,-0.50966 2.998,-0.25372 4.78355,0.77714 1.86908,1.07914 2.89038,2.57344 3.03438,4.49431 0.14398,1.92091 -0.57573,4.24719 -2.15521,6.98293 -0.66918,1.15906 -1.47047,2.29349 -2.37582,3.42755 -0.88889,1.12965 -1.89599,2.25295 -3.01503,3.34717 l -4.24893,-2.45312 c 1.18803,-0.80378 2.25553,-1.72117 3.20222,-2.73392 0.95272,-1.02317 1.76914,-2.12671 2.46845,-3.33798 0.633,-1.09637 0.96072,-2.02719 0.97742,-2.75544 0.0167,-0.72824 -0.26216,-1.23388 -0.85735,-1.57753 -0.50121,-0.28936 -1.00157,-0.33559 -1.46478,-0.0879 -0.46763,0.23124 -1.08797,0.88542 -1.88083,1.94519 l -0.69782,0.89616 c -1.75408,2.31474 -3.33876,3.73619 -4.7633,4.25028 -1.42452,0.5141 -2.99507,0.29152 -4.71799,-0.70321 -1.85862,-1.07308 -2.86878,-2.51974 -3.0313,-4.31212 -0.1625,-1.79235 0.50264,-3.99556 2.02183,-6.62692 z m 13.73438,-23.78864 c 1.24792,-2.16143 3.15151,-3.43739 5.6762,-3.83146 2.51426,-0.40005 5.1292,0.18287 7.83363,1.74425 2.70443,1.56142 4.50627,3.52854 5.42738,5.912 0.91065,2.37746 0.7408,4.6544 -0.50711,6.81584 -0.70535,1.2217 -1.5672,2.13622 -2.59009,2.79866 -1.03333,0.65643 -2.28827,1.07663 -3.75769,1.25851 l 9.22859,5.32812 -3.25,5.62917 -24.22165,-13.98438 3.25,-5.62916 2.57101,1.48437 c -0.57717,-1.36347 -0.85118,-2.66641 -0.78894,-3.88351 0.0518,-1.22308 0.42333,-2.42069 1.12867,-3.64241 z m 11.54687,-19.99977 c 1.59156,-2.75662 3.68957,-4.47466 6.30232,-5.16594 2.6188,-0.70168 5.31756,-0.24965 8.09507,1.35392 l 1.59674,0.92188 -7.5625,13.09863 c 1.39404,0.62388 2.6614,0.74614 3.78946,0.31146 1.12807,-0.43465 2.11465,-1.41266 2.95865,-2.87454 0.68124,-1.17991 1.19713,-2.4652 1.56393,-3.89629 0.36237,-1.44753 0.56285,-3.02261 0.60639,-4.7378 l 4.33012,2.5 c -0.26442,1.6155 -0.67226,3.14815 -1.18728,4.61893 -0.50459,1.47684 -1.1253,2.88658 -1.89092,4.21268 -1.8327,3.17432 -4.04738,5.16139 -6.67426,5.99765 -2.63128,0.8198 -5.41086,0.41231 -8.32414,-1.26967 -2.86104,-1.65182 -4.62116,-3.83492 -5.26582,-6.50432 -0.63861,-2.67982 -0.086,-5.53844 1.66224,-8.56659 z m 12.76563,-22.11071 c 0.53052,-0.91886 1.15364,-1.75895 1.83313,-2.55008 0.6751,-0.80754 1.4144,-1.57232 2.25052,-2.27301 l 4.5737,2.64062 c -0.96217,0.46085 -1.79513,1.00052 -2.49185,1.62851 -0.69068,0.61759 -1.27762,1.33793 -1.75389,2.16281 -0.90427,1.5663 -1.14161,3.04282 -0.72914,4.45042 0.40807,1.39117 1.45363,2.57132 3.09298,3.51779 1.63938,0.94651 3.14668,1.24025 4.56593,0.90409 1.41484,-0.35261 2.58531,-1.29038 3.4896,-2.85667 0.5064,-0.8771 0.84046,-1.79033 1.03155,-2.7242 0.19713,-0.94427 0.22772,-1.9003 0.10191,-2.864 l 4.60076,2.65625 c -0.18272,1.06401 -0.44832,2.10228 -0.81617,3.10114 -0.35139,0.99447 -0.79445,1.93853 -1.31893,2.84695 -1.82667,3.16388 -4.06758,5.15798 -6.71695,6.0091 -2.6598,0.8451 -5.4203,0.44294 -8.3127,-1.22699 -2.89237,-1.66991 -4.63134,-3.86552 -5.21894,-6.58551 -0.59803,-2.726 -0.008,-5.67333 1.81849,-8.83722 z m 38.09375,-65.980308 c 1.59155,-2.756618 3.68956,-4.474657 6.30232,-5.165944 2.6188,-0.701676 5.31755,-0.24965 8.09507,1.353927 l 1.59673,0.921875 -7.5625,13.098634 c 1.39404,0.623873 2.66141,0.746135 3.78947,0.311459 1.12806,-0.434648 2.09902,-1.385602 2.94302,-2.847475 0.68124,-1.179911 1.21275,-2.492265 1.57955,-3.923356 0.36237,-1.447526 0.56285,-3.022607 0.60639,-4.7378 l 4.33013,2.5 c -0.26443,1.615503 -0.67226,3.148152 -1.18728,4.61893 -0.50459,1.476842 -1.1253,2.886577 -1.89093,4.212679 -1.83269,3.174321 -4.04738,5.161394 -6.67425,5.997654 -2.63129,0.8198 -5.41087,0.412308 -8.32414,-1.269672 -2.86105,-1.651825 -4.62117,-3.834926 -5.26582,-6.504326 -0.63862,-2.679813 -0.086,-5.538439 1.66224,-8.566585 z m -22.87949,40.628438 3.23437,-5.60211 17.53702,10.125 -3.23438,5.60211 -17.53701,-10.125 z m 5.09375,-8.82264 3.23437,-5.6021 14.65561,2.61575 -9.60873,-11.357193 3.23437,-5.602102 13.55264,17.026135 -3.54687,6.14337 -21.52139,-3.22386 z m -96.9639,175.57141 c -0.62697,1.08597 -0.8353,2.14906 -0.6111,3.18345 0.21377,1.02839 0.83863,1.9574 1.89076,2.7876 l 4.20313,-7.28003 c -1.06507,-0.61489 -2.09316,-0.81693 -3.10227,-0.56422 -1.01351,0.23629 -1.80177,0.87081 -2.38052,1.8732 z m 67.60937,-117.10288 c -0.62696,1.08598 -0.8353,2.14906 -0.6111,3.18346 0.21377,1.02839 0.83864,1.9574 1.89077,2.7876 l 4.20312,-7.28003 c -1.06506,-0.61489 -2.10878,-0.78987 -3.11789,-0.53716 -1.01351,0.23629 -1.78615,0.84375 -2.3649,1.84613 z m 50.85938,-88.091015 c -0.62697,1.085971 -0.8353,2.14906 -0.6111,3.183453 0.21377,1.028395 0.83863,1.9574 1.89076,2.7876 l 4.20313,-7.280026 c -1.06507,-0.614893 -2.10878,-0.789871 -3.11789,-0.53716 -1.01351,0.236292 -1.78615,0.843745 -2.3649,1.846133 z M 351.27894,234.07181 c -0.71739,1.2426 -0.80564,2.44662 -0.28746,3.62289 0.51379,1.15984 1.62643,2.23807 3.30755,3.20866 1.68114,0.97061 3.13373,1.37341 4.40549,1.24447 1.26736,-0.14539 2.27639,-0.8178 2.99379,-2.0604 0.70535,-1.22168 0.78562,-2.43599 0.27184,-3.59583 -0.52423,-1.16584 -1.61499,-2.19534 -3.29612,-3.16597 -1.68113,-0.97057 -3.15559,-1.4221 -4.41692,-1.28716 -1.27176,0.12896 -2.27281,0.81166 -2.97817,2.03334 z m 24.15927,-41.65769 c -0.47459,1.04624 -0.4672,2.07824 -0.0176,3.09307 0.50937,1.14337 1.6088,2.19181 3.26905,3.15034 1.66025,0.95856 3.1075,1.38045 4.36279,1.25591 1.25089,-0.14098 2.19951,-0.80963 2.89279,-2.01046 0.69329,-1.20079 0.81011,-2.37752 0.29471,-3.51045 -0.50936,-1.14333 -1.59835,-2.18575 -3.26904,-3.15034 -1.67069,-0.96455 -3.145,-1.40206 -4.38987,-1.27154 -1.23882,0.12013 -2.19949,0.80967 -2.89279,2.01046 -0.0867,0.1501 -0.18218,0.28355 -0.25,0.43301 z"
       id="path4064"
       inkscape:connector-curvature="0" />
    <text
       sodipodi:linespacing="125%"
       id="text3401"
       y="219.25201"
       x="868.3595"
       style="font-style:normal;font-weight:normal;font-size:38.66156006px;line-height:125%;font-family:Sans;text-align:center;letter-spacing:0px;word-spacing:0px;text-anchor:middle;fill:#000000;fill-opacity:1;stroke:none"
       xml:space="preserve"><tspan
         y="219.25201"
         x="868.3595"
         id="tspan3403"
         sodipodi:role="line">&lt;-  itération  -&gt;</tspan><tspan
         style="font-size:28px"
         id="tspan3405"
         y="267.57898"
         x="868.3595"
         sodipodi:role="line" /></text>
    <text
       xml:space="preserve"
       style="font-style:normal;font-variant:normal;font-weight:normal;font-stretch:normal;font-size:64px;line-height:125%;font-family:Utopia;-inkscape-font-specification:Utopia;text-align:center;letter-spacing:0px;word-spacing:0px;text-anchor:middle;fill:#000000;fill-opacity:1;stroke:none;stroke-width:1px;stroke-linecap:butt;stroke-linejoin:miter;stroke-opacity:1"
       x="895.77618"
       y="475.36163"
       id="text3407"
       sodipodi:linespacing="125%"><tspan
         sodipodi:role="line"
         id="tspan3409"
         x="895.77618"
         y="475.36163" /></text>
    <g
       id="g3506">
      <rect
         style="fill:#cccccc;stroke:#a50000;stroke-width:2.2940383;stroke-miterlimit:4;stroke-dasharray:none;stroke-opacity:1"
         id="rect3427"
         width="335.35782"
         height="49.389427"
         x="27.315411"
         y="639.16028" />
      <g
         id="g3483">
        <rect
           y="639.56183"
           x="52.523052"
           height="49.011635"
           width="3.3616929"
           id="rect3419"
           style="fill:#000000;stroke:#a50000;stroke-width:0.22880107;stroke-miterlimit:4;stroke-dasharray:none;stroke-opacity:1" />
        <rect
           style="fill:#000000;stroke:#a50000;stroke-width:0.22880107;stroke-miterlimit:4;stroke-dasharray:none;stroke-opacity:1"
           id="rect3443"
           width="3.3616929"
           height="49.011635"
           x="36.823051"
           y="639.56183" />
        <rect
           style="fill:#000000;stroke:#a50000;stroke-width:0.22880107;stroke-miterlimit:4;stroke-dasharray:none;stroke-opacity:1"
           id="rect3445"
           width="3.3616929"
           height="49.011635"
           x="83.92305"
           y="639.56183" />
        <rect
           y="639.56183"
           x="68.223053"
           height="49.011635"
           width="3.3616929"
           id="rect3447"
           style="fill:#000000;stroke:#a50000;stroke-width:0.22880107;stroke-miterlimit:4;stroke-dasharray:none;stroke-opacity:1" />
        <rect
           y="639.56183"
           x="115.32305"
           height="49.011635"
           width="3.3616929"
           id="rect3449"
           style="fill:#000000;stroke:#a50000;stroke-width:0.22880107;stroke-miterlimit:4;stroke-dasharray:none;stroke-opacity:1" />
        <rect
           style="fill:#000000;stroke:#a50000;stroke-width:0.22880107;stroke-miterlimit:4;stroke-dasharray:none;stroke-opacity:1"
           id="rect3451"
           width="3.3616929"
           height="49.011635"
           x="99.623047"
           y="639.56183" />
        <rect
           style="fill:#000000;stroke:#a50000;stroke-width:0.22880107;stroke-miterlimit:4;stroke-dasharray:none;stroke-opacity:1"
           id="rect3453"
           width="3.3616929"
           height="49.011635"
           x="146.72305"
           y="639.56183" />
        <rect
           y="639.56183"
           x="131.02304"
           height="49.011635"
           width="3.3616929"
           id="rect3455"
           style="fill:#000000;stroke:#a50000;stroke-width:0.22880107;stroke-miterlimit:4;stroke-dasharray:none;stroke-opacity:1" />
        <rect
           y="639.56183"
           x="178.12305"
           height="49.011635"
           width="3.3616929"
           id="rect3457"
           style="fill:#000000;stroke:#a50000;stroke-width:0.22880107;stroke-miterlimit:4;stroke-dasharray:none;stroke-opacity:1" />
        <rect
           style="fill:#000000;stroke:#a50000;stroke-width:0.22880107;stroke-miterlimit:4;stroke-dasharray:none;stroke-opacity:1"
           id="rect3459"
           width="3.3616929"
           height="49.011635"
           x="162.42305"
           y="639.56183" />
        <rect
           style="fill:#000000;stroke:#a50000;stroke-width:0.22880107;stroke-miterlimit:4;stroke-dasharray:none;stroke-opacity:1"
           id="rect3461"
           width="3.3616929"
           height="49.011635"
           x="209.52304"
           y="639.56183" />
        <rect
           y="639.56183"
           x="193.82306"
           height="49.011635"
           width="3.3616929"
           id="rect3463"
           style="fill:#000000;stroke:#a50000;stroke-width:0.22880107;stroke-miterlimit:4;stroke-dasharray:none;stroke-opacity:1" />
        <rect
           style="fill:#000000;stroke:#a50000;stroke-width:0.22880107;stroke-miterlimit:4;stroke-dasharray:none;stroke-opacity:1"
           id="rect3465"
           width="3.3616929"
           height="49.011635"
           x="225.22305"
           y="639.56183" />
        <rect
           y="639.56183"
           x="256.62305"
           height="49.011635"
           width="3.3616929"
           id="rect3467"
           style="fill:#000000;stroke:#a50000;stroke-width:0.22880107;stroke-miterlimit:4;stroke-dasharray:none;stroke-opacity:1" />
        <rect
           style="fill:#000000;stroke:#a50000;stroke-width:0.22880107;stroke-miterlimit:4;stroke-dasharray:none;stroke-opacity:1"
           id="rect3469"
           width="3.3616929"
           height="49.011635"
           x="240.92303"
           y="639.56183" />
        <rect
           style="fill:#000000;stroke:#a50000;stroke-width:0.22880107;stroke-miterlimit:4;stroke-dasharray:none;stroke-opacity:1"
           id="rect3471"
           width="3.3616929"
           height="49.011635"
           x="288.02304"
           y="639.56183" />
        <rect
           y="639.56183"
           x="272.32306"
           height="49.011635"
           width="3.3616929"
           id="rect3473"
           style="fill:#000000;stroke:#a50000;stroke-width:0.22880107;stroke-miterlimit:4;stroke-dasharray:none;stroke-opacity:1" />
        <rect
           y="639.56183"
           x="319.42307"
           height="49.011635"
           width="3.3616929"
           id="rect3475"
           style="fill:#000000;stroke:#a50000;stroke-width:0.22880107;stroke-miterlimit:4;stroke-dasharray:none;stroke-opacity:1" />
        <rect
           style="fill:#000000;stroke:#a50000;stroke-width:0.22880107;stroke-miterlimit:4;stroke-dasharray:none;stroke-opacity:1"
           id="rect3477"
           width="3.3616929"
           height="49.011635"
           x="303.72305"
           y="639.56183" />
        <rect
           style="fill:#000000;stroke:#a50000;stroke-width:0.22880107;stroke-miterlimit:4;stroke-dasharray:none;stroke-opacity:1"
           id="rect3479"
           width="3.3616929"
           height="49.011635"
           x="350.82306"
           y="639.56183" />
        <rect
           y="639.56183"
           x="335.12305"
           height="49.011635"
           width="3.3616929"
           id="rect3481"
           style="fill:#000000;stroke:#a50000;stroke-width:0.22880107;stroke-miterlimit:4;stroke-dasharray:none;stroke-opacity:1" />
      </g>
    </g>
    <text
       xml:space="preserve"
       style="font-style:normal;font-variant:normal;font-weight:normal;font-stretch:normal;font-size:30.4879837px;line-height:125%;font-family:Utopia;-inkscape-font-specification:Utopia;text-align:center;letter-spacing:0px;word-spacing:0px;text-anchor:middle;fill:#000000;fill-opacity:1;stroke:none;stroke-width:1px;stroke-linecap:butt;stroke-linejoin:miter;stroke-opacity:1"
       x="163.17892"
       y="717.59991"
       id="text3531"
       sodipodi:linespacing="125%"><tspan
         sodipodi:role="line"
         id="tspan3533"
         x="163.17892"
         y="717.59991">carnet de produit</tspan></text>
    <rect
       style="fill:#ffff00;fill-opacity:0.52195117;stroke:#000000;stroke-width:1.04658759;stroke-linejoin:round;stroke-miterlimit:4;stroke-dasharray:none;stroke-dashoffset:0;stroke-opacity:1"
       id="rect3537"
       width="48.610771"
       height="71.068016"
       x="100.50507"
       y="618.29962" />
    <path
       style="fill:#ffff00;fill-opacity:0.52195117;stroke:#000000;stroke-width:1;stroke-linejoin:round;stroke-miterlimit:4;stroke-dasharray:none;stroke-dashoffset:0;stroke-opacity:1"
       d="m 87.948633,564.93945 0,20.68164 c 0.280094,-0.48281 0.602884,-0.91538 0.970703,-1.2832 1.371959,-1.37196 3.262562,-2.04297 5.640625,-2.04297 2.774407,0 5.822269,1.18887 5.822269,3.35352 0,1.34147 -1.464174,1.89062 -2.531253,1.89062 -0.792688,0 -1.249475,-0.36518 -1.462891,-1.0664 -0.518296,-1.82928 -1.036436,-2.77539 -2.103516,-2.77539 -1.280495,0 -2.591796,1.73882 -2.591796,5.82421 0,4.75613 1.920624,6.09766 3.902343,6.09766 1.676839,0 2.865753,-0.70221 3.902344,-2.77539 l 1.068359,0.48828 c -1.189031,3.78051 -4.024184,4.63281 -6.554687,4.63281 -2.711625,0 -4.850821,-1.03313 -6.0625,-3.08007 l 0,10.77148 247.560547,0 0,-40.7168 -247.560547,0 z m 111.910157,10.03907 0.21289,0.18164 0,19.78711 c 0,1.28049 0.24461,1.40267 1.98243,1.49414 l 0,1.1582 -6.58594,0 0,-1.52344 c -1.64635,1.31099 -3.29187,1.88867 -4.41992,1.88867 -3.87198,0 -6.12891,-3.1093 -6.12891,-7.56054 0,-2.74392 0.85417,-4.78548 2.28711,-6.12696 1.40245,-1.31098 3.41457,-1.98242 5.70117,-1.98242 1.03659,0 1.88981,0.12209 2.56055,0.39649 l 0,-4.02539 c 0,-1.21952 -0.24462,-1.49252 -0.73242,-1.58399 l -1.06641,-0.18359 0,-1.09766 6.18945,-0.82226 z m 43.50586,0.0605 c 0.73171,0 1.61524,1.06593 1.61524,1.82813 0,0.79269 -0.97665,1.40391 -2.07422,2.01367 l -5.57813,3.14062 -0.64062,-0.91601 4.41992,-4.54297 c 1.12806,-1.15854 1.64805,-1.52344 2.25781,-1.52344 z m -28.43164,0.60938 c 1.73782,0 2.80469,1.21941 2.80469,2.65234 0,1.46342 -1.12785,2.6836 -2.80469,2.6836 -1.70733,0 -2.77539,-1.22018 -2.77539,-2.6836 0,-1.43293 1.06806,-2.65234 2.77539,-2.65234 z m 78.00586,0 c 1.73782,0 2.80469,1.21941 2.80469,2.65234 0,1.46342 -1.12785,2.6836 -2.80469,2.6836 -1.70733,0 -2.77539,-1.22018 -2.77539,-2.6836 0,-1.43293 1.06806,-2.65234 2.77539,-2.65234 z m -86.75586,0.39648 c 1.89026,0 2.34785,0.73179 2.04297,2.34766 l -1.3418,6.79883 -1.40234,0 -1.31055,-6.79883 c -0.30488,-1.58538 0.12147,-2.34766 2.01172,-2.34766 z m -34.40625,2.77344 1.76758,0 0,3.8418 3.17188,0 0,1.52539 -3.17188,0 0,8.68945 c 0,1.95123 0.79263,2.80469 1.95117,2.80469 0.67074,0 1.31145,-0.12176 1.73828,-0.30469 l 0.33594,0.94531 c -1.70733,1.06708 -3.59765,1.64453 -4.84766,1.64453 -1.70732,0 -3.78125,-1.15723 -3.78125,-3.93164 l 0,-9.84765 -1.76757,0 0,-1.52539 1.91992,0 2.68359,-3.8418 z m 53.47266,0 1.76758,0 0,3.8418 3.17187,0 0,1.52539 -3.17187,0 0,8.68945 c 0,1.95123 0.79262,2.80469 1.95117,2.80469 0.67073,0 1.31145,-0.12176 1.73828,-0.30469 l 0.33594,0.94531 c -1.70733,1.06708 -3.59765,1.64453 -4.84766,1.64453 -1.70733,0 -3.78125,-1.15723 -3.78125,-3.93164 l 0,-9.84765 -1.76758,0 0,-1.52539 1.91992,0 2.6836,-3.8418 z m 57.10547,0 1.76757,0 0,3.8418 3.17188,0 0,1.52539 -3.17188,0 0,8.68945 c 0,1.95123 0.79263,2.80469 1.95118,2.80469 0.67073,0 1.31145,-0.12176 1.73828,-0.30469 l 0.33594,0.94531 c -1.70733,1.06708 -3.59765,1.64453 -4.84766,1.64453 -1.70733,0 -3.78125,-1.15723 -3.78125,-3.93164 l 0,-9.84765 -1.76758,0 0,-1.52539 1.91992,0 2.6836,-3.8418 z m -172.60938,3.47656 c 5.39637,0 5.70117,2.37733 5.70117,4.26758 l 0,7.04297 c 0,1.79879 0.58022,2.16516 0.97656,2.28711 0.45732,0.15244 1.06655,0.18283 1.46289,0.15234 l 0.0918,1.00586 c -1.0061,0.39635 -2.92634,0.91406 -4.51172,0.91406 -1.46342,0 -1.98256,-0.82245 -2.3789,-1.76757 -1.06708,0.70122 -2.40815,1.76757 -4.35938,1.76757 -3.07928,0 -4.60351,-2.13332 -4.60351,-4.41992 0,-1.73781 0.82387,-2.98737 3.23242,-3.81054 1.98172,-0.67074 4.5423,-1.43236 5.60937,-2.16407 l 0,-1.61719 c 0,-1.73781 -0.88538,-2.25585 -1.76953,-2.25585 -0.85366,0 -1.82797,0.45735 -2.68164,3.04882 -0.2439,0.73172 -0.57926,1.21875 -1.25,1.21875 -0.79268,0 -2.74414,-0.54796 -2.74414,-1.91992 0,-1.98172 2.74288,-3.75 7.22461,-3.75 z m 14.66406,0 0.36524,2.6836 c 1.7683,-1.85977 2.77419,-2.6836 4.05468,-2.6836 1.2805,0 2.13477,0.82378 2.13477,2.13477 0,0.67073 -0.15292,1.27901 -0.48828,1.73633 -0.33537,0.45732 -0.94493,0.79296 -1.55469,0.79296 -0.57927,0 -1.006,-0.24242 -1.40234,-0.48632 -0.67074,-0.39635 -1.12938,-0.64063 -1.61719,-0.64063 -0.73171,0 -1.03516,0.69978 -1.03516,2.28516 l 0,6.83008 c 0,1.28049 0.27352,1.37218 2.6211,1.49414 l 0,1.1582 -9.20704,0 0,-1.1582 c 1.73782,-0.0915 1.98243,-0.21365 1.98243,-1.49414 l 0,-8.96289 c 0,-1.21952 -0.24462,-1.49372 -0.73243,-1.55469 l -1.0664,-0.15235 0,-1.09765 5.94531,-0.88477 z m 13.45899,0 0.39453,2.10352 c 2.01221,-1.18903 3.44654,-2.10352 5.21484,-2.10352 3.14027,0 4.57303,1.82944 4.60352,4.69531 l 0,7.95704 c 0,1.28049 0.24461,1.40267 1.98242,1.49414 l 0,1.1582 -8.20312,0 0,-1.1582 0.64062,-0.0606 c 0.64025,-0.061 0.97656,-0.2146 0.97656,-1.2207 l 0,-7.74414 c -0.061,-1.82928 -0.85331,-2.77344 -2.4082,-2.77344 -1.28049,0 -2.10366,0.70145 -2.5,1.49414 -0.21341,0.42683 -0.30664,1.12809 -0.30664,1.79883 l 0,7.22461 c 0,1.0061 0.33632,1.15972 0.97656,1.2207 l 0.64063,0.0606 0,1.1582 -8.20117,0 0,-1.1582 c 1.73781,-0.0915 1.98046,-0.21365 1.98046,-1.49414 l 0,-8.96289 c 0,-1.21952 -0.24266,-1.49372 -0.73046,-1.55469 l -1.06836,-0.15235 0,-1.09765 6.00781,-0.88477 z m 21.05664,0 c 5.88418,0 6.82812,3.84178 6.82812,6.3418 0,0.97561 -0.54696,1.2793 -1.64453,1.2793 l -7.86718,0 c 0,3.20123 1.03713,5.70312 4.08593,5.70312 1.85977,0 3.1713,-0.97703 4.08594,-2.71484 l 1.09766,0.60937 c -1.03659,2.68294 -3.01842,4.45117 -6.64649,4.45117 -5.67076,0.0305 -7.4707,-3.68761 -7.4707,-7.83398 0,-4.26832 2.04341,-7.83594 7.53125,-7.83594 z m 58.26367,0 0.21289,0.1836 0,12.46875 c 0,1.28049 0.24461,1.40267 1.98242,1.49414 l 0,1.1582 -8.56836,0 0,-1.1582 c 1.73782,-0.0915 1.98243,-0.21365 1.98243,-1.49414 l 0,-8.96289 c 0,-1.21952 -0.24462,-1.49372 -0.73243,-1.55469 l -1.0664,-0.15235 0,-1.09765 6.18945,-0.88477 z m 22.30274,0 c 5.88418,0 6.83007,3.84178 6.83007,6.3418 0,0.97561 -0.54891,1.2793 -1.64648,1.2793 l -7.86719,0 c 0,3.20123 1.03714,5.70312 4.08594,5.70312 1.85977,0 3.1713,-0.97703 4.08594,-2.71484 l 1.09765,0.60937 c -1.03659,2.68294 -3.01841,4.45117 -6.64648,4.45117 -5.67077,0.0305 -7.4707,-3.68761 -7.4707,-7.83398 0,-4.26832 2.04341,-7.83594 7.53125,-7.83594 z m 14.19335,0 0.36524,2.6836 c 1.7683,-1.85977 2.77419,-2.6836 4.05469,-2.6836 1.28049,0 2.13476,0.82378 2.13476,2.13477 0,0.67073 -0.15291,1.27901 -0.48828,1.73633 -0.33537,0.45732 -0.94493,0.79296 -1.55469,0.79296 -0.57927,0 -1.006,-0.24242 -1.40234,-0.48632 -0.67074,-0.39635 -1.12743,-0.64063 -1.61523,-0.64063 -0.73172,0 -1.03711,0.69978 -1.03711,2.28516 l 0,6.83008 c 0,1.28049 0.27547,1.37218 2.62304,1.49414 l 0,1.1582 -9.20898,0 0,-1.1582 c 1.73781,-0.0915 1.98242,-0.21365 1.98242,-1.49414 l 0,-8.96289 c 0,-1.21952 -0.24461,-1.49372 -0.73242,-1.55469 l -1.06641,-0.15235 0,-1.09765 5.94531,-0.88477 z m 15.34961,0 c 5.39638,0 5.70118,2.37733 5.70118,4.26758 l 0,7.04297 c 0,1.79879 0.57826,2.16516 0.97461,2.28711 0.45732,0.15244 1.0685,0.18283 1.46484,0.15234 l 0.0898,1.00586 c -1.0061,0.39635 -2.92634,0.91406 -4.51172,0.91406 -1.46342,0 -1.9806,-0.82245 -2.37695,-1.76757 -1.06708,0.70122 -2.4101,1.76757 -4.36133,1.76757 -3.07928,0 -4.60351,-2.13332 -4.60351,-4.41992 0,-1.73781 0.82387,-2.98737 3.23242,-3.81054 1.98172,-0.67074 4.54229,-1.43236 5.60937,-2.16407 l 0,-1.61719 c 0,-1.73781 -0.88342,-2.25585 -1.76757,-2.25585 -0.85367,0 -1.82993,0.45735 -2.6836,3.04882 -0.2439,0.73172 -0.57926,1.21875 -1.25,1.21875 -0.79269,0 -2.74414,-0.54796 -2.74414,-1.91992 0,-1.98172 2.74483,-3.75 7.22656,-3.75 z m 26.16016,0 0.21289,0.1836 0,12.46875 c 0,1.28049 0.24461,1.40267 1.98242,1.49414 l 0,1.1582 -8.5664,0 0,-1.1582 c 1.73781,-0.0915 1.98047,-0.21365 1.98047,-1.49414 l 0,-8.96289 c 0,-1.21952 -0.24267,-1.49372 -0.73047,-1.55469 l -1.06836,-0.15235 0,-1.09765 6.18945,-0.88477 z m 11.41406,0 c 5.51833,0 7.86719,2.95786 7.86719,7.83594 0,4.87808 -2.34886,7.83398 -7.86719,7.83398 -5.54881,0 -7.89648,-2.9559 -7.89648,-7.83398 0,-4.87808 2.34767,-7.83594 7.89648,-7.83594 z m 15.91407,0 0.39648,2.10352 c 2.01221,-1.18903 3.44459,-2.10352 5.21289,-2.10352 3.14026,0 4.57303,1.82944 4.60352,4.69531 l 0,7.95704 c 0,1.28049 0.2446,1.40267 1.98242,1.49414 l 0,1.1582 -8.20117,0 0,-1.1582 0.63867,-0.0606 c 0.64025,-0.061 0.97656,-0.2146 0.97656,-1.2207 l 0,-7.74414 c -0.061,-1.82928 -0.85332,-2.77344 -2.4082,-2.77344 -1.2805,0 -2.10366,0.70145 -2.5,1.49414 -0.21342,0.42683 -0.30469,1.12809 -0.30469,1.79883 l 0,7.22461 c 0,1.0061 0.33436,1.15972 0.97461,1.2207 l 0.64062,0.0606 0,1.1582 -8.20117,0 0,-1.1582 c 1.73782,-0.0915 1.98242,-0.21365 1.98242,-1.49414 l 0,-8.96289 c 0,-1.21952 -0.24461,-1.49372 -0.73242,-1.55469 l -1.0664,-0.15235 0,-1.09765 6.00586,-0.88477 z m -163.72071,1.40235 c -1.98172,0 -2.56054,2.56072 -2.56054,4.75585 l 3.78125,0 c 0.70122,0 0.94531,-0.18268 0.94531,-1.00585 0,-1.43294 -0.30625,-3.75 -2.16602,-3.75 z m 34.34961,0 c -1.70733,0 -3.38476,1.61592 -3.38476,6.09765 0,3.90246 1.34054,5.82422 3.32226,5.82422 1.95123,0 2.37891,-1.43478 2.37891,-2.6543 l 0,-6.27929 c 0,-0.64025 -2.4e-4,-1.34151 -0.24414,-1.79883 -0.30488,-0.60976 -0.91372,-1.18945 -2.07227,-1.18945 z m 46.21875,0 c -1.98172,0 -2.5625,2.56072 -2.5625,4.75585 l 3.78125,0 c 0.70123,0 0.94531,-0.18268 0.94531,-1.00585 0,-1.43294 -0.30429,-3.75 -2.16406,-3.75 z m 67.23828,0 c -2.16464,0 -3.04883,2.3482 -3.04883,6.43359 0,4.08539 0.88419,6.43164 3.04883,6.43164 2.13416,0 3.01953,-2.34625 3.01953,-6.43164 0,-4.08539 -0.88537,-6.43359 -3.01953,-6.43359 z m -195.64258,5.39648 c -0.73171,0.33537 -1.79901,0.76295 -2.74414,1.28125 -0.91464,0.5183 -1.40234,1.21941 -1.40234,2.65234 0,1.61587 1.06683,2.56055 2.25586,2.56055 0.82317,0 1.82965,-0.42787 1.89062,-2.07422 l 0,-4.41992 z m 159.28711,0 c -0.73171,0.33537 -1.79901,0.76295 -2.74414,1.28125 -0.91464,0.5183 -1.40234,1.21941 -1.40234,2.65234 0,1.61587 1.06683,2.56055 2.25586,2.56055 0.82317,0 1.82965,-0.42787 1.89062,-2.07422 l 0,-4.41992 z"
       id="rect4343"
       inkscape:connector-curvature="0" />
  </g>
</svg>
