<?xml version="1.0" encoding="UTF-8" standalone="no"?>
<!-- Created with Inkscape (http://www.inkscape.org/) -->

<svg
   xmlns:dc="http://purl.org/dc/elements/1.1/"
   xmlns:cc="http://creativecommons.org/ns#"
   xmlns:rdf="http://www.w3.org/1999/02/22-rdf-syntax-ns#"
   xmlns:svg="http://www.w3.org/2000/svg"
   xmlns="http://www.w3.org/2000/svg"
   xmlns:sodipodi="http://sodipodi.sourceforge.net/DTD/sodipodi-0.dtd"
   xmlns:inkscape="http://www.inkscape.org/namespaces/inkscape"
   width="297mm"
   height="210mm"
   id="svg2987"
   version="1.1"
   inkscape:version="0.48.4 r9939"
   sodipodi:docname="scrum_iterations.svg">
  <defs
     id="defs2989" />
  <sodipodi:namedview
     inkscape:document-units="mm"
     pagecolor="#ffffff"
     bordercolor="#666666"
     borderopacity="1.0"
     inkscape:pageopacity="0.0"
     inkscape:pageshadow="2"
     inkscape:zoom="0.61399264"
     inkscape:cx="928.22331"
     inkscape:cy="431.21327"
     inkscape:current-layer="layer1"
     id="namedview2991"
     showgrid="false"
     inkscape:window-width="1364"
     inkscape:window-height="701"
     inkscape:window-x="0"
     inkscape:window-y="27"
     inkscape:window-maximized="0" />
  <metadata
     id="metadata2993">
    <rdf:RDF>
      <cc:Work
         rdf:about="">
        <dc:format>image/svg+xml</dc:format>
        <dc:type
           rdf:resource="http://purl.org/dc/dcmitype/StillImage" />
        <dc:title />
      </cc:Work>
    </rdf:RDF>
  </metadata>
  <g
     inkscape:label="Layer 1"
     inkscape:groupmode="layer"
     id="layer1">
    <text
       xml:space="preserve"
       style="font-size:38.66156006px;font-style:normal;font-weight:normal;text-align:center;line-height:125%;letter-spacing:0px;word-spacing:0px;text-anchor:middle;fill:#000000;fill-opacity:1;stroke:none;font-family:Sans"
       x="528.3595"
       y="299.25201"
       id="text3037"
       sodipodi:linespacing="125%"><tspan
         sodipodi:role="line"
         id="tspan3039"
         x="528.3595"
         y="299.25201">&lt;-  itération  -&gt;</tspan><tspan
         sodipodi:role="line"
         x="528.3595"
         y="336.95206"
         id="tspan3041"
         style="font-size:28px">(..., 1s, 2s, 3s, ...)</tspan></text>
    <g
       id="g3143"
       transform="translate(0,120)">
      <rect
         y="239.16025"
         x="23.315411"
         height="49.389427"
         width="335.35782"
         id="rect2985"
         style="fill:#8dd35f;stroke:#a50000;stroke-width:2.2940383;stroke-miterlimit:4;stroke-opacity:1;stroke-dasharray:none" />
      <rect
         style="fill:#0066ff;stroke:#a50000;stroke-width:0.9281323;stroke-miterlimit:4;stroke-opacity:1;stroke-dasharray:none"
         id="rect3043"
         width="53.416962"
         height="50.755333"
         x="22.632458"
         y="238.47729" />
      <rect
         y="238.47729"
         x="304.63245"
         height="50.755333"
         width="53.416962"
         id="rect3045"
         style="fill:#ff6600;stroke:#a50000;stroke-width:0.9281323;stroke-miterlimit:4;stroke-opacity:1;stroke-dasharray:none" />
      <rect
         style="fill:#5599ff;stroke:#a50000;stroke-width:0.9281323;stroke-miterlimit:4;stroke-opacity:1;stroke-dasharray:none"
         id="rect3047"
         width="53.416962"
         height="50.755333"
         x="250.63245"
         y="238.47729" />
      <rect
         y="238.22777"
         x="90.382919"
         height="51.254395"
         width="11.304845"
         id="rect3049"
         style="fill:#000055;stroke:#a50000;stroke-width:0.42906916;stroke-miterlimit:4;stroke-opacity:1;stroke-dasharray:none" />
      <rect
         style="fill:#000055;stroke:#a50000;stroke-width:0.42906916;stroke-miterlimit:4;stroke-opacity:1;stroke-dasharray:none"
         id="rect3051"
         width="11.304845"
         height="51.254395"
         x="135.04959"
         y="238.22777" />
      <rect
         y="238.22777"
         x="179.71626"
         height="51.254395"
         width="11.304845"
         id="rect3053"
         style="fill:#000055;stroke:#a50000;stroke-width:0.42906916;stroke-miterlimit:4;stroke-opacity:1;stroke-dasharray:none" />
      <rect
         style="fill:#000055;stroke:#a50000;stroke-width:0.42906916;stroke-miterlimit:4;stroke-opacity:1;stroke-dasharray:none"
         id="rect3055"
         width="11.304845"
         height="51.254395"
         x="224.38292"
         y="238.22777" />
    </g>
    <text
       xml:space="preserve"
       style="font-size:37.03963852px;font-style:normal;font-weight:normal;text-align:center;line-height:125%;letter-spacing:0px;word-spacing:0px;text-anchor:middle;fill:#000055;fill-opacity:1;stroke:none;font-family:Sans"
       x="-199.06451"
       y="269.44681"
       id="text3057"
       sodipodi:linespacing="125%"
       transform="matrix(0.5,-0.8660254,0.8660254,0.5,0,0)"><tspan
         sodipodi:role="line"
         id="tspan3059"
         x="-199.06451"
         y="269.44681">mélée</tspan></text>
    <path
       style="fill:none;stroke:#000000;stroke-width:5.78621817;stroke-linecap:butt;stroke-linejoin:miter;stroke-miterlimit:4;stroke-opacity:1;stroke-dasharray:5.78621816, 5.78621816;stroke-dashoffset:0"
       d="m 354.78914,152.09559 2.15664,191.08398"
       id="path3875"
       inkscape:connector-curvature="0" />
    <path
       inkscape:connector-curvature="0"
       id="path3877"
       d="m 696.04651,155.35296 2.15664,191.08398"
       style="fill:none;stroke:#000000;stroke-width:5.78621817;stroke-linecap:butt;stroke-linejoin:miter;stroke-miterlimit:4;stroke-opacity:1;stroke-dasharray:5.78621816, 5.78621816;stroke-dashoffset:0" />
    <path
       style="fill:none;stroke:#000000;stroke-width:5.78621817;stroke-linecap:butt;stroke-linejoin:miter;stroke-miterlimit:4;stroke-opacity:1;stroke-dasharray:5.78621816, 5.78621816;stroke-dashoffset:0"
       d="m 1034.0465,155.35296 2.1567,191.08398"
       id="path3879"
       inkscape:connector-curvature="0" />
    <text
       transform="matrix(0.70710678,0.70710678,-0.70710678,0.70710678,0,0)"
       sodipodi:linespacing="125%"
       id="text3881"
       y="286.35666"
       x="395.14255"
       style="font-size:37.03963852px;font-style:normal;font-weight:normal;text-align:center;line-height:125%;letter-spacing:0px;word-spacing:0px;text-anchor:middle;fill:#0066ff;fill-opacity:1;stroke:none;font-family:Sans"
       xml:space="preserve"><tspan
         y="286.35666"
         x="395.14255"
         id="tspan3883"
         sodipodi:role="line">planning</tspan></text>
    <text
       xml:space="preserve"
       style="font-size:37.03963852px;font-style:normal;font-weight:normal;text-align:center;line-height:125%;letter-spacing:0px;word-spacing:0px;text-anchor:middle;fill:#5599ff;fill-opacity:1;stroke:none;font-family:Sans"
       x="685.05634"
       y="118.06528"
       id="text3893"
       sodipodi:linespacing="125%"
       transform="matrix(0.70710678,0.70710678,-0.70710678,0.70710678,0,0)"><tspan
         sodipodi:role="line"
         x="685.05634"
         y="118.06528"
         id="tspan3899">point de visibilité des</tspan><tspan
         sodipodi:role="line"
         x="685.05634"
         y="164.36482"
         id="tspan3903">développements</tspan></text>
    <path
       inkscape:connector-curvature="0"
       id="path3911"
       d="m 354.78914,152.09559 2.15664,191.08398"
       style="fill:none;stroke:#000000;stroke-width:5.78621817;stroke-linecap:butt;stroke-linejoin:miter;stroke-miterlimit:4;stroke-opacity:1;stroke-dasharray:5.78621816, 5.78621816;stroke-dashoffset:0" />
    <g
       id="g3153"
       transform="translate(338,120)">
      <rect
         style="fill:#8dd35f;stroke:#a50000;stroke-width:2.2940383;stroke-miterlimit:4;stroke-opacity:1;stroke-dasharray:none"
         id="rect3155"
         width="335.35782"
         height="49.389427"
         x="23.315411"
         y="239.16025" />
      <rect
         y="238.47729"
         x="22.632458"
         height="50.755333"
         width="53.416962"
         id="rect3157"
         style="fill:#0066ff;stroke:#a50000;stroke-width:0.9281323;stroke-miterlimit:4;stroke-opacity:1;stroke-dasharray:none" />
      <rect
         style="fill:#ff6600;stroke:#a50000;stroke-width:0.9281323;stroke-miterlimit:4;stroke-opacity:1;stroke-dasharray:none"
         id="rect3159"
         width="53.416962"
         height="50.755333"
         x="304.63245"
         y="238.47729" />
      <rect
         y="238.47729"
         x="250.63245"
         height="50.755333"
         width="53.416962"
         id="rect3161"
         style="fill:#5599ff;stroke:#a50000;stroke-width:0.9281323;stroke-miterlimit:4;stroke-opacity:1;stroke-dasharray:none" />
      <rect
         style="fill:#000055;stroke:#a50000;stroke-width:0.42906916;stroke-miterlimit:4;stroke-opacity:1;stroke-dasharray:none"
         id="rect3163"
         width="11.304845"
         height="51.254395"
         x="90.382919"
         y="238.22777" />
      <rect
         y="238.22777"
         x="135.04959"
         height="51.254395"
         width="11.304845"
         id="rect3165"
         style="fill:#000055;stroke:#a50000;stroke-width:0.42906916;stroke-miterlimit:4;stroke-opacity:1;stroke-dasharray:none" />
      <rect
         style="fill:#000055;stroke:#a50000;stroke-width:0.42906916;stroke-miterlimit:4;stroke-opacity:1;stroke-dasharray:none"
         id="rect3167"
         width="11.304845"
         height="51.254395"
         x="179.71626"
         y="238.22777" />
      <rect
         y="238.22777"
         x="224.38292"
         height="51.254395"
         width="11.304845"
         id="rect3169"
         style="fill:#000055;stroke:#a50000;stroke-width:0.42906916;stroke-miterlimit:4;stroke-opacity:1;stroke-dasharray:none" />
    </g>
    <g
       transform="translate(676,120)"
       id="g3171">
      <rect
         y="239.16025"
         x="23.315411"
         height="49.389427"
         width="335.35782"
         id="rect3173"
         style="fill:#8dd35f;stroke:#a50000;stroke-width:2.2940383;stroke-miterlimit:4;stroke-opacity:1;stroke-dasharray:none" />
      <rect
         style="fill:#0066ff;stroke:#a50000;stroke-width:0.9281323;stroke-miterlimit:4;stroke-opacity:1;stroke-dasharray:none"
         id="rect3175"
         width="53.416962"
         height="50.755333"
         x="22.632458"
         y="238.47729" />
      <rect
         y="238.47729"
         x="304.63245"
         height="50.755333"
         width="53.416962"
         id="rect3177"
         style="fill:#ff6600;stroke:#a50000;stroke-width:0.9281323;stroke-miterlimit:4;stroke-opacity:1;stroke-dasharray:none" />
      <rect
         style="fill:#5599ff;stroke:#a50000;stroke-width:0.9281323;stroke-miterlimit:4;stroke-opacity:1;stroke-dasharray:none"
         id="rect3179"
         width="53.416962"
         height="50.755333"
         x="250.63245"
         y="238.47729" />
      <rect
         y="238.22777"
         x="90.382919"
         height="51.254395"
         width="11.304845"
         id="rect3181"
         style="fill:#000055;stroke:#a50000;stroke-width:0.42906916;stroke-miterlimit:4;stroke-opacity:1;stroke-dasharray:none" />
      <rect
         style="fill:#000055;stroke:#a50000;stroke-width:0.42906916;stroke-miterlimit:4;stroke-opacity:1;stroke-dasharray:none"
         id="rect3183"
         width="11.304845"
         height="51.254395"
         x="135.04959"
         y="238.22777" />
      <rect
         y="238.22777"
         x="179.71626"
         height="51.254395"
         width="11.304845"
         id="rect3185"
         style="fill:#000055;stroke:#a50000;stroke-width:0.42906916;stroke-miterlimit:4;stroke-opacity:1;stroke-dasharray:none" />
      <rect
         style="fill:#000055;stroke:#a50000;stroke-width:0.42906916;stroke-miterlimit:4;stroke-opacity:1;stroke-dasharray:none"
         id="rect3187"
         width="11.304845"
         height="51.254395"
         x="224.38292"
         y="238.22777" />
    </g>
    <path
       style="fill:none;stroke:#000000;stroke-width:4.03139257;stroke-linecap:butt;stroke-linejoin:miter;stroke-miterlimit:4;stroke-opacity:1;stroke-dasharray:4.03139272, 4.03139272;stroke-dashoffset:0"
       d="m 12.4558,375.97654 -51.1433,3.91152"
       id="path3202"
       inkscape:connector-curvature="0" />
    <path
       inkscape:connector-curvature="0"
       id="path3206"
       d="m 1092.4558,375.97654 -51.1433,3.91152"
       style="fill:none;stroke:#000000;stroke-width:4.03139257;stroke-linecap:butt;stroke-linejoin:miter;stroke-miterlimit:4;stroke-opacity:1;stroke-dasharray:4.03139272, 4.03139272;stroke-dashoffset:0" />
    <path
       style="fill:#ff6600;fill-opacity:1;stroke:#a50000;stroke-width:0;stroke-miterlimit:4;stroke-opacity:1;stroke-dasharray:none;stroke-dashoffset:0"
       d="m 281.29351,316.35263 24.68172,14.25 24.68173,14.25 76.14062,-131.87943 76.14063,-131.879428 -24.68172,-14.25 -24.68173,-14.25 -76.14062,131.879428 -76.14063,131.87943 z m 29.16909,-38.58484 2.5625,-4.43838 2.55605,9.19779 -1.76563,3.05815 -3.35292,-7.81756 z m 95.04904,-161.62976 3.23437,-5.60211 4.5737,2.64063 -3.23438,5.6021 -4.57369,-2.64062 z m -85.31595,152.02155 3.23438,-5.60211 4.97964,2.875 3.34375,-5.79154 4.00537,2.3125 -3.34375,5.79154 7.44241,4.29688 c 0.81446,0.47024 1.45286,0.62089 1.93211,0.46599 0.46881,-0.16092 0.98776,-0.71084 1.54239,-1.6715 l 1.67187,-2.89577 4.00537,2.3125 -2.78125,4.81727 c -1.27807,2.21367 -2.64356,3.51333 -4.09898,3.91213 -1.45983,0.38235 -3.29221,-0.0605 -5.50589,-1.33852 l -7.4424,-4.29687 -1.60938,2.78752 -4.00537,-2.3125 1.60938,-2.78752 -4.97965,-2.875 z m 78.59375,-136.12837 3.23438,-5.6021 4.97964,2.875 3.34375,-5.79155 4.00537,2.3125 -3.34375,5.79155 7.44241,4.29687 c 0.81446,0.47025 1.45286,0.6209 1.93211,0.46599 0.46881,-0.16091 1.00338,-0.7379 1.55801,-1.69856 l 1.65625,-2.86871 4.00537,2.3125 -2.78125,4.81727 c -1.27807,2.21367 -2.64356,3.51334 -4.09898,3.91214 -1.45983,0.38235 -3.29221,-0.0605 -5.50589,-1.33852 l -7.4424,-4.29688 -1.60938,2.78752 -4.00537,-2.3125 1.60938,-2.78752 -4.97965,-2.875 z M 309.3517,297.44192 c 0.10852,-0.18793 0.2232,-0.3726 0.37077,-0.57979 0.13707,-0.21321 0.37738,-0.52425 0.67075,-0.91178 l 5.06084,2.92188 c -0.51305,0.35815 -0.94312,0.74971 -1.33089,1.18016 -0.39217,0.41404 -0.72278,0.87693 -1.00613,1.36767 -0.83193,1.44099 -1.01881,2.806 -0.54165,4.12566 0.47278,1.30323 1.55648,2.45027 3.27937,3.44497 l 8.09192,4.67188 -3.23437,5.6021 -17.53702,-10.125 3.23438,-5.6021 2.86871,1.65625 c -0.73262,-1.38361 -1.08239,-2.66949 -1.06795,-3.90026 0.0101,-1.2472 0.38766,-2.54642 1.14123,-3.85166 z m 7.39063,-12.80094 c 1.59155,-2.75662 3.68956,-4.47465 6.30232,-5.16594 2.6188,-0.70168 5.31755,-0.24965 8.09507,1.35393 l 1.59673,0.92187 -7.5625,13.09864 c 1.39404,0.62387 2.67703,0.71907 3.80509,0.28439 1.12807,-0.43465 2.09903,-1.3856 2.94303,-2.84747 0.68123,-1.17992 1.21275,-2.49227 1.57955,-3.92336 0.36237,-1.44753 0.56285,-3.02261 0.60639,-4.7378 l 4.33012,2.5 c -0.26442,1.6155 -0.67226,3.14815 -1.18728,4.61893 -0.50459,1.47684 -1.1253,2.88658 -1.89092,4.21268 -1.8327,3.17432 -4.06301,5.18846 -6.68988,6.02472 -2.63129,0.8198 -5.39524,0.38524 -8.30852,-1.29674 -2.86104,-1.65182 -4.63679,-3.80786 -5.28144,-6.47726 -0.63862,-2.67981 -0.086,-5.53844 1.66224,-8.56659 z m 23.17187,-40.13486 c 0.10852,-0.18793 0.2232,-0.3726 0.37077,-0.57979 0.13707,-0.21321 0.37738,-0.52425 0.67075,-0.91178 l 5.06084,2.92187 c -0.51305,0.35816 -0.94312,0.74971 -1.33089,1.18017 -0.39217,0.41404 -0.72278,0.87693 -1.00613,1.36767 -0.83193,1.44099 -1.01881,2.80599 -0.54165,4.12566 0.47278,1.30323 1.55648,2.45027 3.27937,3.44497 l 8.09192,4.67187 -3.23437,5.60211 -17.53702,-10.125 3.23438,-5.60211 2.86871,1.65625 c -0.73262,-1.3836 -1.08239,-2.66948 -1.06795,-3.90025 0.0101,-1.2472 0.38766,-2.54642 1.14123,-3.85167 z m 7.35938,-12.74681 c 1.74227,-3.01767 3.93533,-4.89051 6.54088,-5.64165 2.61159,-0.76153 5.35263,-0.30157 8.23457,1.3623 2.88194,1.66391 4.65081,3.80775 5.29708,6.4502 0.65228,2.63205 0.0998,5.4521 -1.64243,8.46977 -1.7483,3.02814 -3.92746,4.93941 -6.54507,5.7114 -2.61158,0.76156 -5.35263,0.30159 -8.23458,-1.3623 -2.88193,-1.66389 -4.65079,-3.80771 -5.29707,-6.4502 -0.64022,-2.6529 -0.10166,-5.51138 1.64662,-8.53952 z m 11.79687,-20.43279 c 0.59684,-1.03372 1.32046,-2.08628 2.1342,-3.13403 0.81375,-1.04771 1.76554,-2.14213 2.87133,-3.2858 l 4.276,2.46875 c -1.19449,0.91146 -2.25661,1.86235 -3.15228,2.83492 -0.89565,0.97261 -1.63429,1.9557 -2.20701,2.94765 -0.61491,1.06508 -0.9391,1.93713 -0.96906,2.61595 -0.0343,0.66238 0.22695,1.1414 0.78035,1.46089 0.44901,0.25925 0.89332,0.27312 1.35653,0.0254 0.46926,-0.25811 1.07602,-0.87893 1.77564,-1.8255 l 0.69782,-0.89615 c 2.02333,-2.66048 3.74893,-4.23496 5.15699,-4.74467 1.40806,-0.50966 2.998,-0.25372 4.78355,0.77714 1.86908,1.07914 2.89038,2.57344 3.03438,4.49431 0.14398,1.92091 -0.57573,4.24719 -2.15521,6.98293 -0.66918,1.15906 -1.47047,2.29349 -2.37582,3.42755 -0.88889,1.12965 -1.89599,2.25295 -3.01503,3.34717 l -4.24893,-2.45312 c 1.18803,-0.80378 2.25553,-1.72117 3.20222,-2.73392 0.95272,-1.02317 1.76914,-2.12671 2.46845,-3.33798 0.633,-1.09637 0.96072,-2.02719 0.97742,-2.75544 0.0167,-0.72824 -0.26216,-1.23388 -0.85735,-1.57753 -0.50121,-0.28936 -1.00157,-0.33559 -1.46478,-0.0879 -0.46763,0.23124 -1.08797,0.88542 -1.88083,1.94519 l -0.69782,0.89616 c -1.75408,2.31474 -3.33876,3.73619 -4.7633,4.25028 -1.42452,0.5141 -2.99507,0.29152 -4.71799,-0.70321 -1.85862,-1.07308 -2.86878,-2.51974 -3.0313,-4.31212 -0.1625,-1.79235 0.50264,-3.99556 2.02183,-6.62692 z m 13.73438,-23.78864 c 1.24792,-2.16143 3.15151,-3.43739 5.6762,-3.83146 2.51426,-0.40005 5.1292,0.18287 7.83363,1.74425 2.70443,1.56142 4.50627,3.52854 5.42738,5.912 0.91065,2.37746 0.7408,4.6544 -0.50711,6.81584 -0.70535,1.2217 -1.5672,2.13622 -2.59009,2.79866 -1.03333,0.65643 -2.28827,1.07663 -3.75769,1.25851 l 9.22859,5.32812 -3.25,5.62917 -24.22165,-13.98438 3.25,-5.62916 2.57101,1.48437 c -0.57717,-1.36347 -0.85118,-2.66641 -0.78894,-3.88351 0.0518,-1.22308 0.42333,-2.42069 1.12867,-3.64241 z m 11.54687,-19.99977 c 1.59156,-2.75662 3.68957,-4.47466 6.30232,-5.16594 2.6188,-0.70168 5.31756,-0.24965 8.09507,1.35392 l 1.59674,0.92188 -7.5625,13.09863 c 1.39404,0.62388 2.6614,0.74614 3.78946,0.31146 1.12807,-0.43465 2.11465,-1.41266 2.95865,-2.87454 0.68124,-1.17991 1.19713,-2.4652 1.56393,-3.89629 0.36237,-1.44753 0.56285,-3.02261 0.60639,-4.7378 l 4.33012,2.5 c -0.26442,1.6155 -0.67226,3.14815 -1.18728,4.61893 -0.50459,1.47684 -1.1253,2.88658 -1.89092,4.21268 -1.8327,3.17432 -4.04738,5.16139 -6.67426,5.99765 -2.63128,0.8198 -5.41086,0.41231 -8.32414,-1.26967 -2.86104,-1.65182 -4.62116,-3.83492 -5.26582,-6.50432 -0.63861,-2.67982 -0.086,-5.53844 1.66224,-8.56659 z m 12.76563,-22.11071 c 0.53052,-0.91886 1.15364,-1.75895 1.83313,-2.55008 0.6751,-0.80754 1.4144,-1.57232 2.25052,-2.27301 l 4.5737,2.64062 c -0.96217,0.46085 -1.79513,1.00052 -2.49185,1.62851 -0.69068,0.61759 -1.27762,1.33793 -1.75389,2.16281 -0.90427,1.5663 -1.14161,3.04282 -0.72914,4.45042 0.40807,1.39117 1.45363,2.57132 3.09298,3.51779 1.63938,0.94651 3.14668,1.24025 4.56593,0.90409 1.41484,-0.35261 2.58531,-1.29038 3.4896,-2.85667 0.5064,-0.8771 0.84046,-1.79033 1.03155,-2.7242 0.19713,-0.94427 0.22772,-1.9003 0.10191,-2.864 l 4.60076,2.65625 c -0.18272,1.06401 -0.44832,2.10228 -0.81617,3.10114 -0.35139,0.99447 -0.79445,1.93853 -1.31893,2.84695 -1.82667,3.16388 -4.06758,5.15798 -6.71695,6.0091 -2.6598,0.8451 -5.4203,0.44294 -8.3127,-1.22699 -2.89237,-1.66991 -4.63134,-3.86552 -5.21894,-6.58551 -0.59803,-2.726 -0.008,-5.67333 1.81849,-8.83722 z m 38.09375,-65.980308 c 1.59155,-2.756618 3.68956,-4.474657 6.30232,-5.165944 2.6188,-0.701676 5.31755,-0.24965 8.09507,1.353927 l 1.59673,0.921875 -7.5625,13.098634 c 1.39404,0.623873 2.66141,0.746135 3.78947,0.311459 1.12806,-0.434648 2.09902,-1.385602 2.94302,-2.847475 0.68124,-1.179911 1.21275,-2.492265 1.57955,-3.923356 0.36237,-1.447526 0.56285,-3.022607 0.60639,-4.7378 l 4.33013,2.5 c -0.26443,1.615503 -0.67226,3.148152 -1.18728,4.61893 -0.50459,1.476842 -1.1253,2.886577 -1.89093,4.212679 -1.83269,3.174321 -4.04738,5.161394 -6.67425,5.997654 -2.63129,0.8198 -5.41087,0.412308 -8.32414,-1.269672 -2.86105,-1.651825 -4.62117,-3.834926 -5.26582,-6.504326 -0.63862,-2.679813 -0.086,-5.538439 1.66224,-8.566585 z m -22.87949,40.628438 3.23437,-5.60211 17.53702,10.125 -3.23438,5.60211 -17.53701,-10.125 z m 5.09375,-8.82264 3.23437,-5.6021 14.65561,2.61575 -9.60873,-11.357193 3.23437,-5.602102 13.55264,17.026135 -3.54687,6.14337 -21.52139,-3.22386 z m -96.9639,175.57141 c -0.62697,1.08597 -0.8353,2.14906 -0.6111,3.18345 0.21377,1.02839 0.83863,1.9574 1.89076,2.7876 l 4.20313,-7.28003 c -1.06507,-0.61489 -2.09316,-0.81693 -3.10227,-0.56422 -1.01351,0.23629 -1.80177,0.87081 -2.38052,1.8732 z m 67.60937,-117.10288 c -0.62696,1.08598 -0.8353,2.14906 -0.6111,3.18346 0.21377,1.02839 0.83864,1.9574 1.89077,2.7876 l 4.20312,-7.28003 c -1.06506,-0.61489 -2.10878,-0.78987 -3.11789,-0.53716 -1.01351,0.23629 -1.78615,0.84375 -2.3649,1.84613 z m 50.85938,-88.091015 c -0.62697,1.085971 -0.8353,2.14906 -0.6111,3.183453 0.21377,1.028395 0.83863,1.9574 1.89076,2.7876 l 4.20313,-7.280026 c -1.06507,-0.614893 -2.10878,-0.789871 -3.11789,-0.53716 -1.01351,0.236292 -1.78615,0.843745 -2.3649,1.846133 z M 351.27894,234.07181 c -0.71739,1.2426 -0.80564,2.44662 -0.28746,3.62289 0.51379,1.15984 1.62643,2.23807 3.30755,3.20866 1.68114,0.97061 3.13373,1.37341 4.40549,1.24447 1.26736,-0.14539 2.27639,-0.8178 2.99379,-2.0604 0.70535,-1.22168 0.78562,-2.43599 0.27184,-3.59583 -0.52423,-1.16584 -1.61499,-2.19534 -3.29612,-3.16597 -1.68113,-0.97057 -3.15559,-1.4221 -4.41692,-1.28716 -1.27176,0.12896 -2.27281,0.81166 -2.97817,2.03334 z m 24.15927,-41.65769 c -0.47459,1.04624 -0.4672,2.07824 -0.0176,3.09307 0.50937,1.14337 1.6088,2.19181 3.26905,3.15034 1.66025,0.95856 3.1075,1.38045 4.36279,1.25591 1.25089,-0.14098 2.19951,-0.80963 2.89279,-2.01046 0.69329,-1.20079 0.81011,-2.37752 0.29471,-3.51045 -0.50936,-1.14333 -1.59835,-2.18575 -3.26904,-3.15034 -1.67069,-0.96455 -3.145,-1.40206 -4.38987,-1.27154 -1.23882,0.12013 -2.19949,0.80967 -2.89279,2.01046 -0.0867,0.1501 -0.18218,0.28355 -0.25,0.43301 z"
       id="path4064"
       inkscape:connector-curvature="0" />
  </g>
</svg>
